<svg xmlns="http://www.w3.org/2000/svg" width="256" height="256" fill-rule="evenodd"  xmlns:v="https://vecta.io/nano"><path d="M119.129.317c-6.771.345-13.368 1.98-24.959 6.187-12.63 4.583-15.266 5.737-26.839 11.749-16.948 8.804-25.377 15.117-39.339 29.463-11.093 11.397-11.532 12.061-9.783 14.801 1.781 2.788 3.901 2.292 19.206-4.494 9.918-4.398 15.763-6.748 18.292-7.354 5.641-1.354 20.816-4.12 25.13-4.583 2.633-.282 6.017-.755 7.522-1.051s5.658-.708 9.231-.914 9.007-.759 12.076-1.229c10.085-1.544 48.41-1.639 57.159-.142 1.034.177 3.573.488 5.641.692 6.863.675 27.23 4.176 31.626 5.436l6.388 1.734c3.559.921 8.389 3.159 14.81 6.862 10.161 5.86 12.501 6.636 14.024 4.649.876-1.143.746-2.887-.32-4.289-.37-.487-2.105-2.92-3.855-5.408-3.152-4.479-4.646-6.271-12.216-14.654-12.214-13.524-15.524-16.341-27.037-23.008l-7.522-4.403c-7.281-4.323-14.882-7.425-22.152-9.041-3.57-.794-37.16-1.51-47.083-1.004m9.995 68.055c-13.838 1.944-19.118 14.887-13.345 32.713 4.719 14.574 20.287 17.753 29.293 5.983 13.467-17.602 3.64-41.447-15.947-38.696M17.044 132.509c-2.263 2.322-1.28 4.098 7.283 13.162 19.593 20.74 36.627 31.505 68.475 43.276 14.835 5.482 22.308 6.6 41.728 6.24 26.009-.482 29.288-.73 36.055-2.731 5.156-1.524 16.092-6.908 20.489-10.089.484-.35 1.725-1.073 2.758-1.607 8.046-4.16 19.636-13.297 23.798-18.761.661-.868 3.386-3.956 6.054-6.864 7.359-8.016 14.597-18.017 14.597-20.17 0-3.493-3.411-3.301-10.086.566-5.135 2.974-13.071 7.022-16.165 8.244-6.564 2.593-25.977 6.584-39.992 8.223l-9.06 1.143c-7.614 1.032-45.771.74-54.763-.418-3.587-.462-7.907-.94-9.6-1.061-5.286-.379-10.15-.915-12.992-1.432-1.504-.274-4.505-.663-6.667-.865-3.663-.341-10.795-1.619-20.771-3.722-5.392-1.137-17.445-5.598-25.899-9.587a90.59 90.59 0 0 0-4.445-1.938c-1.128-.445-2.975-1.216-4.103-1.714-2.953-1.303-5.358-1.265-6.694.103m3.91 59.28c-1.838.815-2.282 2.856-1.11 5.099 1.645 3.147 16.943 18.594 24.921 25.162 14.934 12.296 44.558 26.447 65.912 31.486 7.177 1.694 25.364 2.631 34.266 1.765 2.351-.229 8.428-.542 13.505-.695 11.92-.362 15.084-1.145 25.472-6.305 18.101-8.991 26.507-15.046 37.219-26.81 11.793-12.952 13.391-14.791 14.322-16.478.517-.939 1.919-3.07 3.115-4.735 3.345-4.659 3.758-6.68 1.557-7.623-1.819-.78-3.397-.174-11.841 4.543-12.545 7.009-18.076 8.97-31.893 11.306l-10.599 1.903a154.69 154.69 0 0 1-10.77 1.576c-2.915.297-6.17.699-7.234.893-5.468.996-50.617.991-55.164-.007-2.281-.501-6.78-.987-12.868-1.392-2.753-.183-7.6-.724-10.77-1.203l-8.842-1.214c-9.26-1.036-22.282-3.922-29.404-6.516-4.318-1.574-5.4-2.04-13.334-5.747-9.534-4.455-14.381-5.929-16.46-5.007" fill="#0d0d0d"/><path d="M154.857.613c5.359.193 10.469.511 11.355.709 7.27 1.615 14.871 4.718 22.152 9.041l7.522 4.403c11.513 6.667 14.822 9.483 27.037 23.008 7.571 8.383 9.064 10.174 12.216 14.654l3.855 5.408c1.066 1.402 1.196 3.146.32 4.289-1.523 1.987-3.863 1.211-14.024-4.649-6.42-3.702-11.25-5.941-14.81-6.862l-6.388-1.734c-4.396-1.26-24.763-4.761-31.626-5.436-2.069-.203-4.607-.515-5.641-.692-8.749-1.497-47.074-1.402-57.159.142-3.069.47-8.503 1.022-12.076 1.229s-7.727.617-9.231.914-4.889.769-7.522 1.051c-4.314.462-19.489 3.229-25.13 4.583-2.528.606-8.374 2.957-18.292 7.354-15.304 6.786-17.424 7.282-19.206 4.494-1.75-2.739-1.31-3.404 9.783-14.801C45.416 29.813 64.235 17.571 87.673 8.892c25.191-9.328 28.094-9.686 67.184-8.28M137.84 69.05c5.911 1.884 11.066 7.679 12.961 14.568 3.489 12.684-6.427 29.863-17.666 30.603-11.57.761-19.666-10.454-19.645-27.213.017-13.464 11.617-22.018 24.35-17.959M23.738 132.405c1.128.498 2.975 1.269 4.103 1.714s3.128 1.317 4.445 1.938c8.454 3.989 20.507 8.45 25.899 9.587 9.976 2.104 17.107 3.381 20.771 3.722 2.163.202 5.163.59 6.667.865 2.842.517 7.706 1.053 12.992 1.432 1.692.121 6.012.599 9.6 1.061 8.993 1.158 47.149 1.45 54.763.418l9.06-1.143c14.015-1.639 33.429-5.63 39.992-8.223 3.094-1.222 11.03-5.27 16.165-8.244 6.675-3.867 10.086-4.059 10.086-.566 0 2.153-7.238 12.154-14.597 20.17-2.669 2.908-5.394 5.996-6.054 6.864-4.162 5.464-15.752 14.601-23.798 18.761-1.033.534-2.275 1.257-2.758 1.607-4.398 3.18-15.334 8.564-20.489 10.089-5.729 1.693-7.182 1.886-16.753 2.223-32.692 1.149-40.445.74-51.969-2.741-21.419-6.47-44.471-17.766-58.97-28.898-7.571-5.813-24.612-22.83-26.173-26.138-2.103-4.456 1.653-6.863 7.018-4.497m5.83 60.981c2.247.908 5.777 2.443 7.846 3.409 7.935 3.707 9.016 4.173 13.334 5.747 7.122 2.594 20.144 5.481 29.404 6.516 1.692.189 5.671.736 8.842 1.214s8.017 1.02 10.77 1.203c6.088.405 10.587.892 12.868 1.392 4.546.998 49.696 1.003 55.164.007 1.064-.194 4.319-.595 7.234-.893a154.69 154.69 0 0 0 10.77-1.576l10.599-1.903c13.816-2.337 19.347-4.298 31.893-11.306 8.444-4.718 10.022-5.323 11.841-4.543 2.2.943 1.787 2.964-1.557 7.623-1.196 1.665-2.598 3.796-3.115 4.735-.931 1.687-2.529 3.526-14.322 16.478-10.712 11.764-19.118 17.819-37.219 26.81-10.388 5.16-13.552 5.943-25.472 6.305-5.077.153-11.155.466-13.505.695-4.621.449-18.506.242-25.814-.386-15.557-1.336-47.465-14.219-65.816-26.572-13.237-8.911-34.19-29.581-34.19-33.728 0-3.548 3.651-3.978 10.446-1.229" fill="transparent"/></svg>