<svg xmlns="http://www.w3.org/2000/svg" width="256" height="256" fill-rule="evenodd"  xmlns:v="https://vecta.io/nano"><path d="M132.78 84.746c-7.792.185-16.634.602-22.673 1.069l-10.106.778c-5.823.443-13.905 1.603-22.414 3.219-11.184 2.124-14.839 3.026-31.224 7.703-14.822 4.231-15.922 4.577-19.953 6.269l-8.94 3.664c-2.636 1.058-6.309 2.627-8.163 3.487l-5.42 2.515c-5.241 2.429-5.202 3.901.235 8.651 4.328 3.782 6.362 5.126 16.975 11.222 7.598 4.364 23.839 10.064 25.942 9.105 1.842-.84 1.146-2.291-2.394-4.984-6.041-4.595-11.369-10.377-11.369-12.335 0-1.751 3.704-3.931 10.624-6.253 2.141-.718 14.848-3.657 18.268-4.224.855-.142 2.254-.449 3.11-.682 3.145-.858 22.861-4.205 29.799-5.06 6.361-.784 8.522-.544 11.531 1.28 3.747 2.272 5.25 4.026 8.56 9.993l4.004 7.043c4.169 7.126 6.683 15.819 7.909 27.341l.764 6.107c.141.729.379 2.258.529 3.398.391 2.976 1.273 3.959 3.067 3.422 1.536-.46 1.858-1.725 2.499-9.8.969-12.201 2.543-18.422 7.32-28.922 2.349-5.163 12.192-18.548 15.779-21.457 1.746-1.416 3.256-1.518 15.645-1.059 12.326.457 15.559.65 19.824 1.183l9.198 1.127c2.637.316 6.018.814 7.515 1.105a137.399 117.065 0 0 0 5.053.887c4.472.686 13.906 3.207 14.915 3.985 1.617 1.248 1.268 2.628-1.666 6.58-12.133 16.342-22.243 25.827-35.607 33.4-2.415 1.369-3.139 2.53-2.119 3.399 1.12.954 4.176.085 9.291-2.642 1.084-.578 3.585-1.766 5.558-2.641s4.014-1.817 4.535-2.093 2.113-1.035 3.538-1.685c2.987-1.362 7.281-3.748 9.717-5.4a63.34 63.34 0 0 1 3.369-2.106c6.804-3.896 21.16-15.656 24.458-20.038.342-.455 1.33-1.571 2.196-2.482 4.94-5.199 4.463-7.609-2.166-10.931a167.32 167.32 0 0 1-4.359-2.267c-.972-.532-3.013-1.441-4.534-2.021s-4.691-1.857-7.043-2.838-5.442-2.147-6.867-2.59a84.967 72.393 0 0 1-4.534-1.546c-2.064-.786-6.519-2.187-12.05-3.79-3.024-.876-14.626-3.393-21.557-4.677-4.793-.887-12.065-1.797-16.145-2.019l-6.737-.438c-6.921-.559-26.721-1.12-33.687-.955" fill="#0c0c0c"/><path d="M155.972 85.157l10.495.543 6.737.438c4.08.223 11.352 1.133 16.145 2.019 6.932 1.283 18.534 3.8 21.557 4.677 5.531 1.603 9.986 3.004 12.05 3.79a84.967 72.393 0 0 0 4.534 1.546c1.425.443 4.515 1.608 6.867 2.59l7.043 2.838c1.521.579 3.562 1.489 4.534 2.021a167.32 167.32 0 0 0 4.359 2.267c6.629 3.323 7.106 5.732 2.166 10.931-.865.911-1.854 2.027-2.196 2.482-3.298 4.381-17.654 16.142-24.458 20.038a63.34 63.34 0 0 0-3.369 2.106c-2.435 1.651-6.73 4.038-9.717 5.4-1.425.65-3.018 1.408-3.538 1.685s-2.561 1.218-4.535 2.093-4.475 2.063-5.558 2.641c-5.115 2.727-8.171 3.596-9.291 2.642-1.02-.869-.295-2.031 2.119-3.399 11.667-6.613 21.939-15.725 31.377-27.838 8.722-11.193 8.776-11.539 2.09-13.501-4.259-1.249-8.185-2.177-11.11-2.626a137.399 117.065 0 0 1-5.053-.887c-1.497-.291-4.877-.789-7.515-1.105l-9.198-1.127c-4.264-.534-7.497-.727-19.824-1.183-12.389-.459-13.899-.357-15.645 1.059-3.587 2.909-13.43 16.294-15.779 21.457-4.777 10.5-6.351 16.721-7.32 28.922-.641 8.075-.963 9.34-2.499 9.8-1.794.537-2.676-.446-3.067-3.422-.15-1.14-.388-2.669-.529-3.398s-.485-3.476-.764-6.107c-1.226-11.523-3.741-20.215-7.909-27.341l-4.004-7.043c-3.31-5.967-4.812-7.721-8.56-9.993-3.009-1.824-5.17-2.064-11.531-1.28-6.938.855-26.654 4.202-29.799 5.06-.855.233-2.254.539-3.11.682-3.42.567-16.127 3.506-18.268 4.224-6.921 2.322-10.624 4.502-10.624 6.253 0 1.959 5.328 7.74 11.369 12.335 3.54 2.693 4.236 4.144 2.394 4.984-2.103.959-18.344-4.741-25.942-9.105-10.614-6.095-12.647-7.439-16.975-11.222-5.437-4.751-5.476-6.222-.235-8.651l5.42-2.515c1.853-.861 5.526-2.43 8.163-3.487l8.94-3.664c2.873-1.206 5.936-2.253 9.976-3.413 26.815-7.692 28.852-8.213 41.201-10.559 8.509-1.615 16.591-2.776 22.414-3.219l10.106-.778c6.04-.467 14.882-.885 22.673-1.069 4.379-.104 15.581.095 23.192.412" fill="transparent"/></svg>