<svg xmlns="http://www.w3.org/2000/svg" width="256" height="256" fill-rule="evenodd"  xmlns:v="https://vecta.io/nano"><path d="M72.745 24.114c-7.879 1.252-12.233 5.548-17.184 16.952-1.782 4.107-2.509 10.625-1.327 11.91 1.399 1.521 3.284 1.079 7.238-1.698 5.145-3.612 14.539-5.855 21.498-5.132 9.843 1.023 17.133 2.242 21.332 3.569 1.548.489 4.148 1.181 5.778 1.537s6.163 1.727 10.075 3.045c7.952 2.681 9.454 2.877 10.971 1.434 3.745-3.564-.162-7.895-16.304-18.067-7.745-4.881-14.307-7.635-24.152-10.138-2.688-.683-6.476-1.709-8.418-2.28-3.467-1.018-7.328-1.478-9.506-1.132m3.111 37.01c-2.465.265-7.478 1.242-11.112 2.165-3.077.782-7.409 3.054-11.526 6.044a297.75 297.75 0 0 1-6.401 4.501c-4.234 2.872-5.492 4.005-9.784 8.798l-5.92 6.592c-3.179 3.521-12.376 19.702-17.304 30.442-.341.743-1.057 2.161-1.592 3.151-1.45 2.683-7.068 14.325-7.323 15.173-.121.404-.994 2.423-1.939 4.486-3.336 7.284-3.606 9.16-2.015 14.021 2.683 8.195 10.097 20.524 17.499 29.099 8.307 9.623 12.635 14.253 15.31 16.381 3.465 2.754 5.72 4.777 9.956 8.926 8.209 8.041 11.511 10.446 16.264 11.841 4.779 1.403 5.703 1.123 10.03-3.036a277.871 281.458 0 0 1 6.26-5.8c4.746-4.239 6.868-6.992 10.411-13.506l2.819-5.102c6.005-10.592 8.211-20.04 4.879-20.888-1.425-.362-2.314.245-6.853 4.675-6.485 6.329-15.9 12.317-23.173 14.74a93.08 93.08 0 0 0-4.17 1.533c-4.301 1.714-5.728 1.232-8.374-2.825-6.313-9.682-10.82-26.474-8.241-30.701.819-1.342 1.727-1.664 5.98-2.121 8.923-.959 11.548-5.79 4.389-8.078-4.205-1.345-7.45-4.361-8.131-7.56-.316-1.484 1.362-7.497 3.125-11.201 9.858-20.705 15.095-28.099 24.304-34.31 14.612-9.855 39.623-8.978 69.151 2.424 23.662 9.137 37.67 17.005 50.521 28.378 1.548 1.369 3.348 2.88 4 3.356 5.679 4.147 5.971 7.784 1.113 13.853-2.065 2.58-2.255 3.912-.752 5.283 1.345 1.226 8.594 1.459 12.232.394 4.029-1.18 4.696-1.25 5.864-.611 1.271.695 4.033 4.199 5.705 7.24 4.387 7.973 3.144 22.668-2.567 30.353-7.114 9.574-12.961 10.156-24.462 2.435-2.065-1.386-4.999-3.232-6.519-4.101-7.666-4.383-14.106-8.281-15.571-9.426-2.14-1.672-4.446-1.885-4.95-.455-.406 1.154.384 2.587 3.423 6.209 1.316 1.568 3.696 4.607 5.288 6.753 3.39 4.57 7.076 8.612 10.662 11.693 3.373 2.899 16.427 12.119 21.348 15.078l5.082 3.157c4.324 2.769 6.604 2.976 10.809.981 1.282-.609 4.296-1.955 6.697-2.992 12.492-5.399 21.426-17.134 24.414-32.069 1.748-8.735-1.976-27.267-6.744-33.558-.795-1.049-3.008-4.136-4.918-6.86-11.112-15.846-21.496-25.952-39.341-38.285l-6.222-4.371c-2.085-1.512-4.905-3.261-12.297-7.628-3.378-1.995-17.784-9.443-18.266-9.443-.085 0-1.778-.793-3.76-1.763l-7.457-3.646c-5.369-2.625-9.314-4.38-12.51-5.567-1.502-.557-3.503-1.343-4.446-1.745-20.774-8.856-47.472-14.164-62.899-12.505" fill="#0d0d0d"/><path d="M82.251 25.246l8.418 2.28c9.846 2.503 16.407 5.257 24.152 10.138 16.142 10.172 20.05 14.502 16.304 18.067-1.517 1.443-3.019 1.247-10.971-1.434-3.911-1.318-8.445-2.688-10.075-3.045s-4.23-1.047-5.778-1.537c-4.199-1.327-11.489-2.546-21.332-3.569-6.959-.723-16.353 1.519-21.498 5.132-5.151 3.617-7.84 3.403-7.837-.624.007-10.684 7.737-23.21 15.844-25.675 4.459-1.356 7.457-1.293 12.772.268m15.088 36.602c12.729 2.033 30.229 7.012 41.417 11.781.943.402 2.944 1.188 4.446 1.745 3.196 1.187 7.141 2.942 12.51 5.567l7.457 3.646c1.982.97 3.675 1.763 3.76 1.763.482 0 14.888 7.448 18.266 9.443 7.392 4.367 10.212 6.116 12.297 7.628 1.141.828 3.941 2.794 6.222 4.371 17.844 12.333 28.229 22.439 39.341 38.285l4.918 6.86c4.768 6.291 8.492 24.823 6.744 33.558-2.988 14.935-11.922 26.67-24.414 32.069l-6.697 2.992c-4.205 1.994-6.485 1.788-10.809-.981l-5.082-3.157c-4.92-2.959-17.975-12.179-21.348-15.078-3.586-3.081-7.272-7.124-10.662-11.693-1.593-2.146-3.972-5.185-5.288-6.753-3.039-3.622-3.829-5.055-3.423-6.209.504-1.429 2.81-1.217 4.95.455 1.465 1.144 7.905 5.043 15.571 9.426 1.52.869 4.454 2.715 6.519 4.101 11.501 7.721 17.348 7.139 24.462-2.435 5.711-7.685 6.954-22.38 2.567-30.353-1.673-3.041-4.434-6.545-5.705-7.24-1.168-.639-1.835-.57-5.864.611-3.638 1.065-10.888.832-12.232-.394-1.503-1.371-1.313-2.703.752-5.283 4.858-6.069 4.566-9.706-1.113-13.853-.652-.476-2.452-1.987-4-3.356-12.851-11.373-26.859-19.241-50.521-28.378-29.528-11.402-54.539-12.279-69.151-2.424-9.209 6.211-14.446 13.604-24.304 34.31-1.763 3.704-3.441 9.717-3.125 11.201.682 3.199 3.926 6.216 8.131 7.56 7.159 2.289 4.534 7.119-4.389 8.078-4.253.457-5.162.779-5.98 2.121-2.579 4.227 1.928 21.019 8.241 30.701 2.646 4.057 4.073 4.539 8.374 2.825a93.08 93.08 0 0 1 4.17-1.533c7.273-2.422 16.688-8.41 23.173-14.74 4.539-4.429 5.428-5.036 6.853-4.675 3.333.848 1.126 10.295-4.879 20.888l-2.819 5.102c-3.543 6.514-5.665 9.267-10.411 13.506a277.871 281.458 0 0 0-6.26 5.8c-4.327 4.159-5.251 4.439-10.03 3.036-4.754-1.395-8.055-3.8-16.264-11.841-4.236-4.149-6.491-6.172-9.956-8.926-2.676-2.127-7.003-6.758-15.31-16.381-7.402-8.576-14.816-20.904-17.499-29.099-1.591-4.861-1.322-6.737 2.015-14.021.945-2.063 1.818-4.083 1.939-4.486.254-.847 5.873-12.489 7.323-15.173.535-.99 1.251-2.409 1.592-3.151 4.928-10.74 14.125-26.921 17.304-30.442l5.92-6.592c4.292-4.793 5.551-5.925 9.784-8.798a297.75 297.75 0 0 0 6.401-4.501c5.971-4.338 9.107-5.673 17.156-7.308 7.074-1.437 18.605-1.512 26.964-.177" fill="transparent"/></svg>