<svg xmlns="http://www.w3.org/2000/svg" width="256" height="256" fill-rule="evenodd"  xmlns:v="https://vecta.io/nano"><path d="M152.098.21c-.466.165-1.328.621-1.914 1.014-1.079.723-4.176 2.211-7.882 3.788-1.118.475-3.594 1.688-5.502 2.695l-5.621 2.916c-4.162 2.098-9.53 5.285-17.607 10.452-3.573 2.286-5.574 3.517-7.269 4.473-6.321 3.563-15.499 13.397-15.853 16.987-.302 3.058 1.943 3.258 6.543.585 1.238-.72 2.954-1.566 3.814-1.881a39.713 38.677 0 0 0 3.18-1.366c3.248-1.593 13.736-5.225 17.504-6.061 6.514-1.446 14.788-2.399 18.299-2.108 3.194.264 4.655.883 12.199 5.163l8.013 4.488 4.784 2.695c7.399 4.214 8.294 4.455 8.864 2.391.325-1.174.141-2.233-.89-5.154a90.59 90.59 0 0 1-1.511-4.798c-.623-2.231-2.149-6.454-5.016-13.877-.545-1.409-1.742-4.119-2.662-6.021s-2.002-4.575-2.406-5.94c-.892-3.012-.847-2.929-2.624-4.939-.789-.893-1.845-2.328-2.347-3.189-1.331-2.285-2.428-2.904-4.097-2.313m-15.671 47.994c-.535.169-1.719.692-2.631 1.162s-3.894 1.902-6.626 3.183c-6.013 2.82-10.258 5.177-16.92 9.395l-6.698 4.197c-6.039 3.743-15.28 11.285-17.01 13.882-2.107 3.163.896 5.5 4.931 3.836a195.89 190.78 0 0 1 3.588-1.418c1.184-.454 2.583-1.041 3.11-1.303 6.548-3.261 21.818-8.381 24.996-8.381 5.366 0 13.496 2.395 20.47 6.029 4.512 2.352 5.902 3.756 7.139 7.213 1.046 2.924 2.54 6.709 3.287 8.326.405.877 1.088 2.712 1.518 4.077s1.554 4.579 2.497 7.141l2.156 5.94c2.382 6.922 4.685 16.543 5.046 21.083.815 10.234.951 12.485.947 15.609-.005 3.928-.335 7.045-1.532 14.464a312.008 303.868 0 0 0-1.343 9.381c-.286 2.352-.822 5.812-1.193 7.688a132.635 129.174 0 0 0-1.063 6.322c-.779 5.82-1.113 6.472-3.779 7.375-2.006.679-12.743.34-18.962-.6-1.71-.258-4.132-.581-5.382-.716-2.251-.243-5.914-1.221-12.797-3.414l-5.719-1.752c-15.205-4.4-22.752-10.478-32.434-26.116-3.089-4.989-3.546-5.527-4.7-5.527-1.694 0-2.177 2.118-1.299 5.707.251 1.025.529 2.493.619 3.261.364 3.117 1.274 5.37 6.451 15.958 2.906 5.945 3.85 7.679 5.262 9.668a43.6 43.6 0 0 1 1.635 2.486c1.295 2.194 11.383 10.959 14.756 12.818.724.399 2.242 1.39 3.374 2.202 2.153 1.544 6.258 3.642 8.706 4.45.789.26 3.373 1.071 5.741 1.801l5.98 1.918c5.586 1.972 9.721 3.186 18.059 5.307 3.171.806 14.93 4.864 17.524 6.046 1.284.585 3.011 1.312 3.837 1.615 1.682.617 7.225 3.774 9.539 5.433.832.597 2.589 1.794 3.904 2.661 5.787 3.813 15.225 11.803 18.089 15.315 2.582 3.166 4.803 4.548 5.577 3.472.709-.985.454-1.893-2.008-7.166-.807-1.728-1.692-3.877-1.966-4.776s-.922-2.613-1.439-3.809c-.947-2.193-2.131-6.195-2.596-8.775-.139-.769-.562-2.813-.941-4.543-.906-4.136-1.601-9.443-2.043-15.608l-.594-8.037c-.24-3.093-.451-18.944-.599-44.728-.08-14.076-.189-16.778-1.103-27.256-.145-1.666-.349-5.754-.452-9.085-.162-5.201-.26-6.271-.693-7.571-.277-.833-.667-2.929-.865-4.659-.471-4.098-3.061-16.564-3.968-19.102-.916-2.558-1.464-4.99-2.257-10.004-1.103-6.976-1.137-7.016-11.162-12.832l-11.672-6.981c-1.118-.726-3.379-2.111-5.023-3.077l-5.502-3.26c-7.011-4.197-8.232-4.896-9.503-5.444-1.712-.737-3.008-.885-4.265-.486M86.928 100.89c-2.105.166-6.088.312-8.85.324s-6.476.128-8.252.255-6.644.262-10.816.298c-8.414.072-8.81.146-8.995 1.666-.103.85.291 1.235 3.422 3.341 8.313 5.589 12.818 9.581 23.826 21.113 2.751 2.882 4.81 6.543 5.751 10.228 1.23 4.814 3.588 5.3 4.965 1.023 1.112-3.453 3.306-7.43 7.868-14.258 4.829-7.229 7.318-10.34 12.387-15.492 5.737-5.829 6.504-7.182 4.718-8.323-.846-.54-19.789-.668-26.023-.176m-.166 9.058c1.507.759 1.524 1.908.059 3.794-.503.647-1.308 1.776-1.79 2.509-1.347 2.051-3.006 3.385-4.209 3.387-.744.001-1.427-.473-4.538-3.144l-3.971-3.332c-2.113-1.705-2.037-3.072.194-3.521 1.799-.362 13.425-.112 14.256.306" fill="#0c0c0c"/><path d="M154.713.555c.313.221.98 1.107 1.482 1.968s1.558 2.296 2.347 3.189c1.777 2.01 1.732 1.927 2.624 4.939.404 1.365 1.487 4.038 2.406 5.94l2.662 6.021c2.867 7.423 4.393 11.645 5.016 13.877a90.59 90.59 0 0 0 1.511 4.798c1.032 2.92 1.215 3.98.89 5.154-.57 2.065-1.465 1.823-8.864-2.391l-4.784-2.695-8.013-4.488c-7.544-4.281-9.005-4.899-12.199-5.163-3.51-.291-11.785.662-18.299 2.108-3.768.836-14.257 4.468-17.504 6.061a39.713 38.677 0 0 1-3.18 1.366c-.86.315-2.576 1.161-3.814 1.881-4.6 2.673-6.845 2.473-6.543-.585.354-3.59 9.531-13.424 15.853-16.987 1.695-.956 3.696-2.187 7.269-4.473 8.077-5.167 13.445-8.354 17.607-10.452l5.621-2.916c1.908-1.007 4.383-2.22 5.502-2.695 3.706-1.577 6.803-3.065 7.882-3.788 2.019-1.352 3.292-1.54 4.528-.669m-14.02 48.135c1.271.547 2.492 1.247 9.503 5.444l5.502 3.26c1.644.966 3.905 2.351 5.023 3.077 2.451 1.592 4.667 2.918 11.672 6.981 10.025 5.816 10.059 5.855 11.162 12.832.793 5.014 1.341 7.445 2.257 10.004.908 2.538 3.498 15.004 3.968 19.102.199 1.73.588 3.826.865 4.659.434 1.3.531 2.37.693 7.571.103 3.331.307 7.42.452 9.085.914 10.478 1.023 13.18 1.103 27.256l.599 44.728.594 8.037c.442 6.165 1.137 11.472 2.043 15.608l.941 4.543c.465 2.579 1.649 6.582 2.596 8.775.517 1.196 1.164 2.91 1.439 3.809s1.16 3.048 1.966 4.776c2.463 5.273 2.717 6.18 2.008 7.166-.774 1.077-2.995-.306-5.577-3.472-2.864-3.512-12.302-11.502-18.089-15.315-1.316-.867-3.072-2.064-3.904-2.661-2.314-1.659-7.856-4.816-9.539-5.433-.826-.303-2.552-1.03-3.837-1.615-2.593-1.183-14.352-5.24-17.524-6.046-8.338-2.12-12.473-3.335-18.059-5.307-.921-.325-3.612-1.188-5.98-1.918l-5.741-1.801c-2.448-.808-6.552-2.906-8.706-4.45-1.132-.812-2.65-1.803-3.374-2.202-3.373-1.86-13.461-10.624-14.756-12.818a43.6 43.6 0 0 0-1.635-2.486c-1.412-1.988-2.356-3.723-5.262-9.668-5.177-10.588-6.088-12.841-6.451-15.958a33.38 33.38 0 0 0-.619-3.261c-.877-3.589-.395-5.707 1.299-5.707 1.154 0 1.611.538 4.7 5.527 9.681 15.638 17.229 21.716 32.434 26.116a271.991 264.895 0 0 1 5.719 1.752c6.883 2.193 10.546 3.171 12.797 3.414 1.25.135 3.672.458 5.382.716 6.219.939 16.956 1.279 18.962.6 2.665-.903 3-1.555 3.779-7.375a132.635 129.174 0 0 1 1.063-6.322c.371-1.876.907-5.335 1.193-7.688a312.008 303.868 0 0 1 1.343-9.381c1.197-7.42 1.527-10.537 1.532-14.464.005-3.125-.132-5.375-.947-15.609-.361-4.539-2.664-14.16-5.046-21.083-.242-.705-1.213-3.378-2.156-5.94s-2.067-5.776-2.497-7.141-1.113-3.2-1.518-4.077c-.747-1.617-2.241-5.402-3.287-8.326-1.238-3.457-2.628-4.861-7.139-7.213-6.974-3.635-15.104-6.029-20.47-6.029-3.178-.001-18.448 5.119-24.996 8.381-.526.262-1.926.849-3.11 1.303l-3.588 1.418c-4.035 1.663-7.038-.673-4.931-3.836 1.73-2.597 10.971-10.139 17.01-13.882l6.698-4.197c6.662-4.218 10.907-6.575 16.92-9.395l6.626-3.183c3.184-1.639 4.389-1.756 6.897-.677m-27.741 52.376c1.787 1.141 1.02 2.494-4.718 8.323-5.07 5.151-7.558 8.262-12.387 15.492-4.562 6.829-6.756 10.805-7.868 14.258-1.377 4.277-3.734 3.791-4.965-1.023-.942-3.685-3-7.346-5.751-10.228-11.008-11.532-15.514-15.524-23.826-21.113-3.132-2.106-3.526-2.49-3.422-3.341.185-1.521.581-1.594 8.995-1.666 4.173-.036 9.04-.17 10.816-.298s5.49-.242 8.252-.255 6.745-.158 8.85-.324c6.235-.492 25.177-.364 26.023.176m-40.445 8.576c-2.232.448-2.307 1.815-.194 3.521a218.24 218.24 0 0 1 3.971 3.332c3.111 2.671 3.794 3.145 4.538 3.144 1.204-.002 2.863-1.337 4.209-3.387.481-.733 1.287-1.862 1.79-2.509 1.466-1.886 1.448-3.035-.059-3.794-.831-.418-12.456-.668-14.256-.306" fill="transparent"/></svg>