<svg xmlns="http://www.w3.org/2000/svg" width="256" height="256"  fill-rule="evenodd" xmlns:v="https://vecta.io/nano"><path d="M131.692.451c-.291.206-.991 1.124-1.554 2.041l-3.509 5.166c-.257.275-.86 1.014-1.339 1.644l-1.652 2c-.43.471-1.116 1.462-1.524 2.201s-1.028 1.639-1.377 2c-.872.899-3.888 4.77-4.381 5.624-.221.383-.9 1.297-1.508 2.03s-1.324 1.709-1.591 2.169-.873 1.284-1.346 1.833-1.049 1.324-1.281 1.722a7.86 7.86 0 0 1-1.148 1.417c-.759.723-3.21 3.832-4.529 5.743l-1.558 2.115c-.434.55-1.062 1.471-1.397 2.047l-1.337 2.083-1.54 2.393c-.446.746-1.269 1.796-1.829 2.333-1.85 1.777-2.474 3.86-1.347 4.5 1.254.712 2.808.292 8.785-2.375 3.826-1.707 5.53-1.936 10.378-1.391 4.227.475 7.576 2.238 9.642 5.075.401.55 1.173 1.455 1.717 2.012 1.753 1.794 3.495 5.271 4.012 8.007 1.328 7.022 1.264 6.337 1.26 13.326-.004 9.341-.656 13.939-2.456 17.332a45.17 45.17 0 0 0-1.469 3.12c-.71 1.703-2.689 5.129-3.978 6.886-.412.562-1.049 1.649-1.417 2.416s-.968 1.818-1.335 2.334-.958 1.528-1.314 2.25c-.638 1.292-4.106 7.257-4.881 8.395-.218.321-.668 1.258-.998 2.083s-1.082 2.32-1.67 3.322-1.481 2.768-1.985 3.923-1.186 2.566-1.517 3.134-.937 1.765-1.347 2.66-1.06 2.239-1.445 2.987c-.435.848-.981 2.449-1.451 4.252-.414 1.591-1.05 3.716-1.412 4.723s-.763 2.281-.891 2.831-.565 2.237-.974 3.75-1.179 4.887-1.711 7.499l-1.355 6.583a49.28 49.28 0 0 0-.579 3.381c-.105.851-.371 2.539-.591 3.75-.574 3.164-.7 8.966-.292 13.451l.508 5.696c.108 1.254.491 3.803.849 5.666s.748 4.249.864 5.303c.329 2.982.944 5.897 1.669 7.903.365 1.009.877 2.588 1.139 3.507.791 2.778 1.225 4.023 1.934 5.549.372.801 1.008 2.29 1.413 3.309s.962 2.238 1.237 2.709.793 1.55 1.15 2.397c.587 1.39 3.891 7.238 5.768 10.206.677 1.071 2.359 3.371 4.245 5.806a106.35 106.35 0 0 1 1.522 2.026 18.39 18.39 0 0 0 1.824 2.055l3.168 3.032c2.453 2.358 4.951 3.664 4.761 2.489-.107-.658-1.265-3.15-1.812-3.898a105.79 105.79 0 0 1-1.53-2.179c-.502-.733-1.227-1.759-1.611-2.278s-1.03-1.646-1.435-2.501-1.047-2.011-1.428-2.565-1.027-1.867-1.436-2.915-1.007-2.475-1.328-3.17c-1.026-2.219-3.714-12.519-4.258-16.318l-1.035-7.083c-.277-1.846-.636-11.866-.562-15.749.13-6.916.997-13.055 2.657-18.832 1.308-4.551 1.722-5.656 3.136-8.376.726-1.397 1.554-3.25 1.841-4.119s.729-2.01.984-2.536.774-1.952 1.153-3.17 1.021-2.786 1.427-3.486a46.25 46.25 0 0 0 1.404-2.666 26.73 26.73 0 0 1 1.434-2.568 24.4 24.4 0 0 0 1.253-2.166c.457-.935 2.262-3.826 3.897-6.242.403-.596 1.217-1.908 1.809-2.916s1.424-2.321 1.85-2.916a21.42 21.42 0 0 0 1.406-2.333c.347-.687.935-1.662 1.307-2.166s.999-1.517 1.391-2.251 1.054-1.709 1.469-2.166a27.68 27.68 0 0 0 1.486-1.824c.884-1.202 3.249-3.936 4.707-5.441a67.07 67.07 0 0 0 3.624-4.11c.35-.433 1.009-1.126 1.463-1.538s1.341-1.367 1.972-2.122c1.414-1.693 8.752-8.42 11.095-10.171.949-.709 3.619-2.938 5.936-4.955 2.729-2.376 4.758-3.993 5.765-4.593 2.035-1.214 2.994-2.646 2.994-4.47 0-5.167-4.226-19.907-7.363-25.684-.498-.917-1.155-2.564-1.56-3.912a49.65 49.65 0 0 0-1.659-4.535c-.527-1.214-1.177-2.859-1.443-3.658s-.788-1.974-1.159-2.613-.801-1.694-.956-2.346c-.523-2.198-.858-3.138-1.696-4.756a95.97 95.97 0 0 1-1.741-3.603 49.28 49.28 0 0 0-1.752-3.457c-.466-.806-1.02-1.856-1.233-2.333-.803-1.802-5.848-10.412-6.71-11.45a31.02 31.02 0 0 1-1.764-2.416c-1.48-2.283-3.248-4.621-4.348-5.75-.58-.596-1.358-1.496-1.728-2-1.179-1.606-9.051-8.931-9.962-9.27-.976-.362-2.361-.295-2.985.146M82.834 114.517c-1.66.272-2.939 3.367-4.014 9.714l-.685 4.034c-.795 4.666 2.053 19.37 5.012 25.877.501 1.102 1.108 2.548 1.35 3.214.834 2.3 2.328 3.132 4.071 2.266 1.135-.564 1.472-1.449 1.675-4.395.224-3.249 1.026-7.65 1.868-10.249l1.594-5.083c.52-1.696 1.256-3.826 1.635-4.733 1.915-4.591 1.878-6.579-.162-8.572-4.491-4.388-6.37-6.445-7.331-8.031-1.436-2.369-3.766-4.248-5.014-4.044" fill="#0d0d0d"/><path d="M134.676.305c.911.338 8.783 7.664 9.962 9.27.37.504 1.147 1.404 1.728 2 1.099 1.129 2.867 3.467 4.348 5.75a31.02 31.02 0 0 0 1.764 2.416c.862 1.038 5.907 9.648 6.71 11.45.213.477.767 1.527 1.233 2.333a49.28 49.28 0 0 1 1.752 3.457 95.97 95.97 0 0 0 1.741 3.603c.838 1.618 1.173 2.558 1.696 4.756.155.652.585 1.707.956 2.346s.892 1.814 1.159 2.613.916 2.444 1.443 3.658a49.65 49.65 0 0 1 1.659 4.535c.406 1.349 1.062 2.995 1.56 3.912 3.137 5.777 7.363 20.517 7.363 25.684 0 1.824-.959 3.256-2.994 4.47-1.007.601-3.036 2.218-5.765 4.593-2.316 2.016-4.987 4.246-5.936 4.955-2.343 1.751-9.681 8.478-11.095 10.171-.63.755-1.518 1.71-1.972 2.122s-1.112 1.105-1.463 1.538a67.07 67.07 0 0 1-3.624 4.11c-1.458 1.505-3.823 4.24-4.707 5.441a27.68 27.68 0 0 1-1.486 1.824c-.416.457-1.077 1.432-1.469 2.166s-1.018 1.747-1.391 2.251-.961 1.479-1.307 2.166a21.42 21.42 0 0 1-1.406 2.333c-.426.596-1.259 1.908-1.85 2.916s-1.406 2.321-1.809 2.916c-1.635 2.416-3.44 5.307-3.897 6.242a24.4 24.4 0 0 1-1.253 2.166 26.73 26.73 0 0 0-1.434 2.568 46.25 46.25 0 0 1-1.404 2.666c-.406.7-1.048 2.269-1.427 3.486s-.898 2.644-1.153 3.17-.698 1.667-.984 2.536-1.114 2.722-1.841 4.119c-1.414 2.721-1.828 3.825-3.136 8.376-1.661 5.777-2.527 11.916-2.657 18.832-.073 3.883.285 13.903.562 15.749l1.035 7.083c.544 3.799 3.232 14.099 4.258 16.318.322.695.919 2.121 1.328 3.17s1.056 2.36 1.436 2.915 1.024 1.709 1.428 2.565 1.05 1.981 1.435 2.501 1.109 1.545 1.611 2.278l1.53 2.179c.547.748 1.706 3.24 1.812 3.898.19 1.175-2.308-.131-4.761-2.489l-3.168-3.032a18.39 18.39 0 0 1-1.824-2.055l-1.522-2.026c-1.887-2.435-3.568-4.735-4.245-5.806-1.877-2.968-5.181-8.816-5.768-10.206-.358-.847-.875-1.926-1.15-2.397s-.832-1.69-1.237-2.709-1.041-2.508-1.413-3.309c-.71-1.526-1.144-2.771-1.934-5.549-.262-.919-.774-2.497-1.139-3.507-.725-2.006-1.34-4.921-1.669-7.903-.116-1.054-.505-3.441-.864-5.303s-.741-4.413-.849-5.666l-.508-5.696c-.408-4.485-.282-10.287.292-13.451.22-1.211.486-2.899.591-3.75a49.28 49.28 0 0 1 .579-3.381l1.355-6.583c.532-2.612 1.303-5.987 1.711-7.499l.974-3.75c.127-.55.528-1.824.891-2.831s.998-3.132 1.412-4.723c.47-1.804 1.016-3.404 1.451-4.252.384-.748 1.034-2.092 1.445-2.987s1.017-2.091 1.347-2.66 1.013-1.979 1.517-3.134 1.397-2.921 1.985-3.923 1.339-2.497 1.67-3.322.78-1.762.998-2.083c.775-1.138 4.243-7.103 4.881-8.395.356-.722.948-1.734 1.314-2.25s.967-1.566 1.335-2.334 1.005-1.855 1.417-2.416c1.289-1.757 3.268-5.183 3.978-6.886a45.17 45.17 0 0 1 1.469-3.12c1.8-3.393 2.452-7.991 2.456-17.332.004-6.989.068-6.304-1.26-13.326-.517-2.736-2.26-6.213-4.012-8.007-.544-.557-1.316-1.462-1.717-2.012-2.066-2.838-5.414-4.6-9.642-5.075-4.848-.545-6.552-.317-10.378 1.391-5.977 2.667-7.531 3.088-8.785 2.375-1.127-.64-.503-2.723 1.347-4.5.56-.537 1.383-1.587 1.829-2.333s1.139-1.823 1.54-2.393 1.003-1.507 1.337-2.083.964-1.497 1.397-2.047 1.135-1.502 1.558-2.115c1.318-1.911 3.77-5.02 4.529-5.743a7.86 7.86 0 0 0 1.148-1.417c.232-.399.809-1.174 1.281-1.722s1.078-1.374 1.346-1.833.983-1.436 1.591-2.169 1.287-1.647 1.508-2.03c.494-.854 3.509-4.725 4.381-5.624.349-.36.969-1.26 1.377-2s1.094-1.73 1.524-2.201 1.174-1.371 1.652-2 1.082-1.369 1.339-1.644c.552-.589 2.073-2.829 3.509-5.166 1.467-2.387 2.569-2.919 4.539-2.187M84.358 114.812c.749.449 2.872 2.73 3.49 3.749.961 1.585 2.84 3.643 7.331 8.031 2.04 1.993 2.077 3.981.162 8.572-.379.907-1.114 3.038-1.635 4.733l-1.594 5.083c-.842 2.599-1.644 7-1.868 10.249-.203 2.946-.541 3.831-1.675 4.395-1.743.865-3.237.033-4.071-2.266-.242-.666-.85-2.113-1.35-3.214-2.96-6.507-5.807-21.211-5.012-25.877l.685-4.034c1.351-7.978 3.07-10.9 5.538-9.42" fill="transparent"/></svg>