<svg xmlns="http://www.w3.org/2000/svg" width="256" height="256" fill-rule="evenodd"  xmlns:v="https://vecta.io/nano"><path d="M106.166.056c-1.12.585-1.922 1.252-4.48 3.725l-3.718 3.941-1.383 1.722c-.758.792-4.977 7.281-5.692 8.755-.343.706-1.016 1.918-1.497 2.694l-1.531 2.52c-.362.61-.895 1.43-1.186 1.821-.564.76-2.36 4.404-3.304 6.703-.315.767-.887 1.872-1.271 2.456-.657 1-2.256 4.684-2.844 6.553-.454 1.442-2.01 7.604-2.195 8.69-.097.566-.361 1.85-.589 2.852-1.991 8.783-3.024 22.935-2.181 29.868.095.784.257 2.496.359 3.803.357 4.559.943 7.681 2.184 11.611a151.818 139.338 0 0 1 1.458 5.055c.372 1.418.835 2.955 1.029 3.414s.579 1.638.856 2.618.853 2.549 1.281 3.486a82.21 82.21 0 0 1 1.373 3.208c1.026 2.59 4.382 8.671 6.297 11.408.335.479.928 1.442 1.316 2.139s1.026 1.66 1.416 2.139.869 1.164 1.064 1.521a10.7 10.7 0 0 0 .969 1.387c.338.406 1.038 1.342 1.558 2.081 1.116 1.588 3.99 4.883 5.73 6.569 2.18 2.112 3.278 3.242 3.79 3.895.275.351 1.082 1.269 1.794 2.04l2.848 3.086c.855.926 4.591 4.465 8.305 7.865s6.887 6.422 7.052 6.716c.855 1.518 1.729 4.501 2.93 9.998.219 1.002.595 2.464.835 3.248.98 3.194 2.036 7.606 2.447 10.22l1.401 9.586c.317 2.587 1.68 8.603 2.404 10.612.877 2.432 1.191 3.837 1.56 6.976.485 4.129 1.085 6.974 1.996 9.462.47 1.283.973 3.03 1.12 3.882.555 3.231 1.158 6.057 1.717 8.047a113.87 113.87 0 0 1 1.029 3.981 61.02 61.02 0 0 0 .967 3.565c.284.904.751 3.016 1.038 4.693.714 4.179 1.025 4.877 2.345 5.277 2.364.716 3.34-1.901 3.341-8.96 0-3.124.613-12.695.872-13.627.274-.986.67-9.935.676-15.291.006-4.749.35-12.975.701-16.717.098-1.046.25-4.005.339-6.576s.322-6.314.518-8.319c.218-2.235.388-5.506.439-8.457.046-2.647.199-5.82.342-7.051l.514-4.933c.408-4.308.39-4.265 2.189-5.232.574-.309 1.404-.837 1.845-1.174s1.28-.887 1.866-1.223a38.297 35.148 0 0 0 2.072-1.296c2.162-1.472 3.997-2.616 5.237-3.265 2.251-1.18 4.011-2.168 5.525-3.102.807-.498 1.972-1.137 2.59-1.419s1.472-.779 1.899-1.104 1.476-1.022 2.331-1.552a44.82 44.82 0 0 0 3.021-2.086c.807-.618 2.132-1.545 2.944-2.059 3.889-2.462 4.598-4.629 4.825-14.754l.443-11.725c.638-11.498.357-18.006-.809-18.756-1.126-.724-2.706-.145-3.616 1.323-.327.528-1.322 2.046-2.212 3.373a146.21 146.21 0 0 0-2.716 4.21c-.604.988-1.319 2.057-1.588 2.377s-.771 1.044-1.114 1.611c-1.013 1.675-2.582 3.198-6.775 6.576-.855.688-2.548 2.111-3.764 3.16s-2.584 2.122-3.04 2.385-1.287.814-1.847 1.225-2.027 1.428-3.261 2.259-2.71 1.863-3.28 2.292c-2.24 1.69-2.862 2.128-5.62 3.959-1.572 1.044-3.447 2.347-4.167 2.896-4.362 3.328-5.843 3.226-12.265-.847l-3.869-2.432a51.77 51.77 0 0 1-2.331-1.551l-3.17-2.182c-4.075-2.75-15.232-13.031-17.764-16.368a106.1 106.1 0 0 0-1.663-2.085c-.64-.784-1.261-1.604-1.382-1.822s-.553-.788-.961-1.268-.91-1.228-1.117-1.664-.8-1.384-1.32-2.107c-1.206-1.678-3.12-5.356-3.85-7.4-.312-.871-.821-2.119-1.132-2.773-.568-1.194-1.186-3.225-1.801-5.92l-.769-3.191c-.241-.959-.558-2.848-.705-4.199l-.594-5.308-.431-4.278c-.057-.784-.227-2.46-.378-3.724-.477-4.013-.372-6.597.549-13.468.135-1.002.331-2.678.435-3.724.287-2.856.806-5.94 1.374-8.157.279-1.091.628-2.732.774-3.647.429-2.673.77-4.076 1.481-6.1a58.13 58.13 0 0 0 1.186-3.908c.285-1.104.974-3.172 1.531-4.595l1.41-3.697c.218-.61.691-1.647 1.05-2.305s.843-1.626 1.076-2.152a13.37 13.37 0 0 1 1.045-1.848c.887-1.272 1.344-2.158 2.184-4.231.407-1.002.994-2.289 1.305-2.859.717-1.312 1.289-2.902 1.289-3.582 0-1.06-1.546-1.966-2.503-1.466m23.793 72.864c-1.562.874-1.207 2.919 1.045 6.029 1.407 1.942 3.183 4.684 3.971 6.132a27.95 27.95 0 0 0 1.379 2.218c.417.593 1.011 1.541 1.32 2.108s.791 1.335 1.07 1.708c1.127 1.508 1.394 2.301 1.307 3.892-.081 1.492-.211 1.911-1.416 4.566-1.228 2.707-1.502 7.385-1.004 17.167.251 4.933.587 6.209 1.82 6.899 1.519.85 2.41.218 3.136-2.225.168-.566.619-1.636 1-2.377a59.42 59.42 0 0 0 1.287-2.691c.326-.739.883-1.738 1.237-2.218a34.835 31.971 0 0 0 1.231-1.825 49.82 49.82 0 0 1 1.306-1.981 25.29 25.29 0 0 0 1.197-1.901c.564-1.03 2.3-3.303 3.208-4.199.353-.349 1.015-1.169 1.47-1.822s1.188-1.545 1.628-1.981 1.451-1.612 2.246-2.614 1.79-2.179 2.212-2.614c2.701-2.788 2.082-4.67-2.184-6.639a33.65 33.65 0 0 1-2.447-1.28c-.653-.385-1.601-.889-2.107-1.122-.882-.406-2.691-1.535-5.84-3.645-.807-.541-2.283-1.447-3.28-2.013-1.929-1.096-6.786-4.056-7.778-4.741-.328-.226-1.178-.677-1.89-1.003s-1.652-.866-2.089-1.201c-1.296-.992-2.089-1.156-3.036-.626" fill="#090909"/><path d="M108.194.513c.758.772.511 2.165-.814 4.592-.311.57-.898 1.857-1.305 2.859-.84 2.073-1.297 2.959-2.184 4.231a13.37 13.37 0 0 0-1.045 1.848l-1.076 2.152c-.359.658-.831 1.695-1.05 2.305l-1.41 3.697c-.557 1.424-1.246 3.491-1.531 4.595l-1.186 3.908c-.712 2.025-1.052 3.427-1.481 6.1-.147.915-.495 2.556-.774 3.647-.568 2.217-1.087 5.301-1.374 8.157l-.435 3.724c-.921 6.872-1.027 9.456-.549 13.468.151 1.264.32 2.939.378 3.724s.251 2.71.431 4.278l.594 5.308c.147 1.351.464 3.24.705 4.199l.769 3.191c.615 2.694 1.233 4.726 1.801 5.92.311.654.82 1.901 1.132 2.773.73 2.044 2.644 5.722 3.85 7.4.52.723 1.114 1.671 1.32 2.107s.709 1.184 1.117 1.664.84 1.05.961 1.268.743 1.038 1.382 1.822l1.663 2.085c2.532 3.337 13.689 13.617 17.764 16.368l3.17 2.182a51.77 51.77 0 0 0 2.331 1.551l3.869 2.432c6.422 4.073 7.903 4.175 12.265.847.72-.549 2.595-1.852 4.167-2.896 2.758-1.831 3.379-2.269 5.62-3.959.57-.43 2.046-1.461 3.28-2.292l3.261-2.259c.559-.411 1.39-.963 1.847-1.225s1.824-1.335 3.04-2.385l3.764-3.16c4.193-3.378 5.762-4.901 6.775-6.576.343-.566.844-1.291 1.114-1.611s.984-1.389 1.588-2.377 1.826-2.882 2.716-4.21l2.212-3.373c.704-1.136 1.394-1.582 2.452-1.582 1.805 0 2.085.652 2.183 5.07.134 6.039.098 8.373-.211 13.944-.167 3.007-.366 8.283-.443 11.725-.227 10.125-.936 12.291-4.825 14.754-.812.514-2.137 1.441-2.944 2.059a44.82 44.82 0 0 1-3.021 2.086c-.855.529-1.903 1.227-2.331 1.552s-1.282.821-1.899 1.104-1.783.921-2.59 1.419c-1.514.934-3.273 1.922-5.525 3.102-1.24.649-3.074 1.794-5.237 3.265a38.297 35.148 0 0 1-2.072 1.296c-.586.336-1.425.886-1.866 1.223s-1.271.865-1.845 1.174c-1.799.968-1.781.924-2.189 5.232l-.514 4.933c-.142 1.232-.296 4.405-.342 7.051-.05 2.951-.221 6.222-.439 8.457-.196 2.004-.429 5.748-.518 8.319s-.241 5.53-.339 6.576c-.35 3.741-.695 11.967-.701 16.717-.006 5.356-.402 14.305-.676 15.291-.259.932-.872 10.503-.872 13.627-.001 7.059-.977 9.676-3.341 8.96-1.32-.4-1.631-1.098-2.345-5.277-.287-1.677-.754-3.789-1.038-4.693a61.02 61.02 0 0 1-.967-3.565 115.07 115.07 0 0 0-1.029-3.981c-.559-1.989-1.162-4.816-1.717-8.047-.146-.852-.65-2.599-1.12-3.882-.911-2.488-1.511-5.333-1.996-9.462-.369-3.139-.683-4.544-1.56-6.976-.724-2.009-2.086-8.025-2.404-10.612-.18-1.461-.915-6.5-1.401-9.586-.411-2.614-1.467-7.026-2.447-10.22-.24-.784-.616-2.246-.835-3.248-1.201-5.497-2.075-8.48-2.93-9.998-.166-.294-3.339-3.316-7.052-6.716s-7.45-6.939-8.305-7.865l-2.848-3.086c-.712-.772-1.519-1.69-1.794-2.04-.511-.653-1.61-1.783-3.79-3.895-1.74-1.686-4.615-4.981-5.73-6.569-.519-.738-1.22-1.675-1.558-2.081a10.77 10.77 0 0 1-.969-1.387c-.196-.357-.674-1.042-1.064-1.521a18 18 0 0 1-1.416-2.139c-.388-.697-.981-1.66-1.316-2.139-1.915-2.737-5.272-8.818-6.297-11.408a82.21 82.21 0 0 0-1.373-3.208c-.428-.936-1.004-2.505-1.281-3.486s-.662-2.159-.856-2.618-.656-1.996-1.029-3.414a151.818 139.338 0 0 0-1.458-5.055c-1.24-3.93-1.827-7.052-2.184-11.611-.102-1.307-.264-3.018-.359-3.803-.843-6.933.19-21.085 2.181-29.868.227-1.002.492-2.286.589-2.852.185-1.086 1.741-7.248 2.195-8.69.588-1.869 2.187-5.553 2.844-6.553.384-.584.956-1.689 1.271-2.456.944-2.3 2.74-5.943 3.304-6.703.29-.392.824-1.211 1.186-1.821l1.531-2.52c.481-.776 1.154-1.988 1.497-2.694.715-1.474 4.934-7.963 5.692-8.755.279-.292.902-1.066 1.383-1.722 2.452-3.336 7.865-7.932 9.148-7.769.384.049.777.254 1.079.56m23.537 72.262c.258.09.826.437 1.263.772s1.377.875 2.089 1.201 1.562.777 1.89 1.003c.992.685 5.849 3.645 7.778 4.741.997.566 2.473 1.472 3.28 2.013 3.149 2.11 4.958 3.239 5.84 3.645.506.233 1.454.738 2.107 1.122a33.72 33.72 0 0 0 2.447 1.28c4.266 1.969 4.885 3.852 2.184 6.639-.422.436-1.417 1.612-2.212 2.614s-1.805 2.179-2.246 2.614-1.173 1.327-1.628 1.981-1.117 1.474-1.47 1.822c-.908.896-2.644 3.169-3.208 4.199-.262.479-.801 1.335-1.197 1.901s-.984 1.458-1.306 1.981a34.835 31.971 0 0 1-1.231 1.825c-.355.481-.912 1.479-1.237 2.218s-.905 1.95-1.287 2.691-.833 1.81-1 2.377c-.726 2.443-1.616 3.075-3.136 2.225-1.233-.69-1.569-1.966-1.82-6.899-.497-9.782-.224-14.46 1.004-17.167 1.205-2.655 1.335-3.074 1.416-4.566.086-1.591-.18-2.383-1.307-3.892-.279-.373-.76-1.142-1.07-1.708s-.904-1.515-1.32-2.108-1.037-1.591-1.379-2.218c-.789-1.447-2.565-4.189-3.971-6.132-2.253-3.11-2.607-5.155-1.045-6.029.619-.346 1.087-.385 1.773-.145" fill="transparent"/></svg>