<svg xmlns="http://www.w3.org/2000/svg" width="256" height="256" viewBox="0 0 67.733 67.734" fill-rule="evenodd"  xmlns:v="https://vecta.io/nano"><path d="M66.325 19.372c-.26.153-.311.366-.307 1.279.002.557-.018.874-.065 1.036l-.663 2.078-.361 1.115a6.75 6.75 0 0 1-.344.887l-.364.846c-.08.218-.214.502-.297.631s-.295.506-.47.84c-.773 1.472-1.277 2.286-1.661 2.685-.112.116-.309.357-.439.537-.593.821-1.881 2.098-2.363 2.342-.505.256-1.844.33-2.68.148-.451-.098-1.497-.231-2.142-.272-1.613-.102-1.83-.498-1.097-2.003l.342-.742c0-.039.564-.979.958-1.597a11.015 10.652 0 0 1 .619-.817l.553-.7c.07-.103.529-.58 1.022-1.06.968-.944 1.029-1.035.989-1.448-.048-.482-.507-.621-1.131-.341-.154.069-.607.207-1.005.307l-1.786.487-1.473.404c-.225.054-.606.167-.845.252a6.842 6.617 0 0 1-.845.232c-1.949.374-2.084.503-1.906 1.822.114.846-.056 1.716-.507 2.592-.073.142-.171.37-.218.509-.273.807-.772.874-2.472.336-.483-.153-1.059-.303-1.279-.332-.609-.082-1.224-.228-1.688-.401-.229-.086-.73-.23-1.111-.322l-1.08-.279c-.758-.222-1.333-.349-1.911-.422a10.584 10.236 0 0 1-1.124-.213l-1.817-.394-1.907-.396-1.087-.189-2.899-.419-1.159-.185-2.677-.447a25.87 25.87 0 0 0-2.8-.394l-1.173-.119-.831-.067c-.157 0-.519-.044-.806-.098-.995-.187-1.462-.09-2.259.467l-.79.491-.811.501-.896.56-.782.499-.489.332a6.294 6.087 0 0 0-.485.335 7.6 7.6 0 0 1-.672.439 5.801 5.61 0 0 0-.6.394 3.993 3.861 0 0 1-.456.307c-.214.119-.468.302-1.261.909l-1.667 1.191-1.038.75-.724.544c-.159.108-.433.322-.608.477l-.669.539a6.21 6.21 0 0 0-.647.563 15.555 15.044 0 0 1-.761.712c-.528.46-1.873 1.853-2.265 2.344l-.936 1.067c-.066.042-.19.176-.276.298l-.411.528c-.469.562-.634 1.155-.428 1.539.279.523.825.217 3.478-1.958l.603-.449a6.388 6.178 0 0 0 .488-.345 14.6 14.12 0 0 1 1.682-1.055c.146-.07.396-.217.555-.326a6.091 5.89 0 0 1 .652-.374 4.1 4.1 0 0 0 .539-.31c.098-.074.393-.226.658-.337s.553-.252.643-.314.402-.229.694-.372l2.246-1.154c.093-.055.473-.202.845-.329l2.594-1.008c1.131-.46 2.59-.626 4.382-.498l1.493.099c.503.032 1.058.106 1.714.231a26.1 26.1 0 0 0 2.9.397l1.256.14 1.11.141 1.811.255 1.92.281a8.228 7.957 0 0 1 1.945.466c.545.193.808.256 1.655.397l1.207.24 1.022.207 2.486.491c.305.091.904.227 1.33.303s1.034.22 1.352.321a19.72 19.72 0 0 0 1.664.397l1.512.352a14.99 14.99 0 0 0 1.202.304l1.297.328c.286.089 1.004.247 1.599.35l1.585.331c1.349.383 7.089 1.437 7.52 1.381.565-.073 1.063-.452 1.474-1.121a4.415 4.27 0 0 1 .448-.587 4.024 3.891 0 0 0 .429-.563l.425-.622.429-.584.336-.453c.082-.103.238-.334.346-.513l.335-.498a5.276 5.103 0 0 0 .368-.607l.451-.809.862-1.613a13.75 13.75 0 0 1 .412-.932c.162-.34.297-.691.403-1.051a5.82 5.82 0 0 1 .291-.821c.1-.205.237-.678.411-1.424.332-1.421.347-1.509.439-2.518l.121-1.214c.15-1.269.096-3.916-.101-4.848-.222-1.055-.763-1.602-1.281-1.297" fill="#0c0c0c"/><path d="M67.051 19.519c.436.399.614 1.015.708 2.455.057.874.027 2.865-.052 3.542l-.121 1.214c-.092 1.009-.107 1.096-.439 2.518-.175.747-.311 1.219-.411 1.424a5.82 5.82 0 0 0-.291.821c-.107.36-.242.711-.403 1.051l-.412.932c-.139.366-.277.626-.862 1.613l-.451.809a5.276 5.103 0 0 1-.368.607c-.076.094-.226.318-.335.498a6.083 5.883 0 0 1-.346.513l-.336.453-.429.584-.425.622c-.1.167-.293.42-.429.563a4.27 4.27 0 0 0-.448.587c-.8 1.302-1.037 1.332-4.745.616l-4.249-.876c-.279-.08-.992-.228-1.585-.331l-1.599-.35a17.95 17.95 0 0 0-1.297-.328l-1.202-.304c-.233-.076-.914-.235-1.512-.352l-1.664-.397a12.99 12.99 0 0 0-1.352-.321l-1.33-.303c-.51-.151-1.048-.258-2.486-.491l-1.022-.207-1.207-.24c-.847-.141-1.11-.204-1.655-.397a8.228 7.957 0 0 0-1.945-.466l-1.92-.281-1.811-.255-1.11-.141-1.256-.14-2.9-.397c-.656-.125-1.21-.2-1.714-.231l-1.493-.099c-1.792-.128-3.251.038-4.382.498l-2.594 1.008-.845.329c-.233.136-1.601.839-2.246 1.154l-.694.372c-.089.062-.378.204-.643.314s-.56.263-.658.337-.34.214-.539.31a6.07 6.07 0 0 0-.652.374 5.27 5.27 0 0 1-.555.326 14.6 14.12 0 0 0-1.682 1.055l-.488.345c-.118.072-.39.274-.603.449C.912 43.081.367 43.388.087 42.865c-.206-.385-.041-.977.428-1.539l.411-.528a1.32 1.32 0 0 1 .276-.298c.117-.074.417-.416.936-1.067.391-.491 1.737-1.884 2.265-2.344l.761-.712a5.97 5.97 0 0 1 .647-.563l.669-.539a6.99 6.99 0 0 1 .608-.477 13.442 12.999 0 0 0 .724-.544 17.301 16.732 0 0 1 1.038-.75l1.667-1.191 1.261-.909a3.993 3.861 0 0 0 .456-.307c.121-.098.391-.274.6-.394a7.476 7.23 0 0 0 .672-.439l.485-.335c.106-.062.326-.211.489-.332a10.13 10.13 0 0 1 .782-.499l.896-.56.811-.501.79-.491c.796-.557 1.264-.654 2.259-.467.287.054.65.098.806.098s.531.03.831.067l1.173.119a26.06 26.06 0 0 1 2.8.394l2.677.447 1.159.185 2.899.419c.252.026.741.111 1.087.189l1.907.396 1.817.394a10.74 10.74 0 0 0 1.124.213c.578.073 1.153.2 1.911.422l1.08.279 1.111.322c.463.173 1.079.319 1.688.401.221.03.796.179 1.279.332 1.7.538 2.199.471 2.472-.336.047-.139.145-.367.218-.509.451-.875.621-1.745.507-2.592-.178-1.318-.042-1.448 1.906-1.822a6.881 6.655 0 0 0 .845-.232 9.809 9.486 0 0 1 .845-.252l1.473-.404 1.786-.487c.398-.099.851-.238 1.005-.307.625-.279 1.083-.14 1.131.341.041.413-.021.503-.989 1.448l-1.022 1.06a14.796 14.309 0 0 1-.553.7l-.619.817-.958 1.597c0 .022-.153.356-.342.742-.733 1.504-.516 1.9 1.097 2.003.645.041 1.691.174 2.142.272.836.182 2.175.108 2.68-.148.481-.244 1.769-1.52 2.363-2.342.13-.18.327-.422.439-.537.384-.398.889-1.213 1.661-2.685l.47-.84a3.91 3.91 0 0 0 .297-.631 10.73 10.73 0 0 1 .364-.846c.121-.247.276-.646.344-.887l.361-1.115.662-2.078c.047-.162.067-.479.065-1.036-.003-.914.048-1.127.307-1.279s.436-.119.727.147" fill="transparent"/></svg>