<svg xmlns="http://www.w3.org/2000/svg" width="256" height="256" viewBox="0 0 400 NaN" fill-rule="evenodd"  xmlns:v="https://vecta.io/nano"><path d="M127.715 10.36c-1.289.695-1.798 2.176-2.916 8.502l-1.827 9.524c-.43 1.982-1.005 5.697-1.279 8.257l-1.129 10.509c-.585 5.425-3.91 23.791-5.159 28.494-.702 2.644-2.013 3.884-5.105 4.829-2.55.779-10.536 3.831-11.03 4.215-.171.134-2.057 1.141-4.19 2.238-4.201 2.163-9.296 5.278-11.528 7.051-.77.612-2.269 1.676-3.331 2.364-2.609 1.692-10.488 9.369-13.266 12.927-8.444 10.813-13.617 21.949-16.917 36.417-2.394 10.502.696 32.543 5.972 42.586 1.691 3.219-.374 6.665-6.852 11.443-.514.378-2.809 2.247-5.102 4.152l-6.07 4.945c-3.032 2.364-8.845 7.284-11.551 9.778-1.37 1.263-3.891 3.36-5.603 4.661-8.781 6.671-19.547 16.562-20.552 18.882s.794 3.905 3.591 3.178c1.659-.431 11.277-5.011 13.193-6.283 1.425-.946 5.632-3.335 12.328-7.002 1.798-.984 5.215-2.732 7.594-3.884s4.893-2.44 5.586-2.862 2.792-1.501 4.664-2.399 3.91-1.939 4.53-2.315c2.528-1.535 9.025-4.909 10.704-5.559.987-.382 2.689-1.214 3.782-1.85 3.818-2.222 5.443-2.126 9.293.543 12.044 8.353 16.229 10.246 31.975 14.461 12.963 3.47 30.282 4.789 38.303 2.916 9.39-2.193 19.207-6.109 26.947-10.749l6.029-3.568c1.97-1.153 4.269-2.838 5.786-4.24 4.594-4.245 3.505-4.402 17.916 2.579 6.224 3.015 12.367 5.867 13.65 6.337 4.601 1.685 9.861 3.867 13.16 5.458 6.377 3.077 14.606 6.428 17.914 7.296 1.826.479 3.713 1.016 4.195 1.192 1.787.657 3.625.194 4.218-1.061.666-1.41-.513-2.796-4.628-5.441-1.284-.826-4.271-2.972-6.637-4.769l-7.626-5.753c-1.828-1.366-4.444-3.541-5.814-4.831s-4.031-3.679-5.914-5.31c-9.623-8.33-21.616-19.738-22.139-21.06-.584-1.476-.681-.743 1.254-9.479 1.596-7.207 2.224-13.518 1.785-17.935a200.866 193.755 0 0 1-.533-7.056c-.613-11.634-6.385-28.083-13.273-37.831l-4.137-5.855c-4.317-6.111-11.506-13.582-17.283-17.959-4.537-3.438-15.174-8.522-20.602-9.845-4.659-1.136-5.435-1.627-6.296-3.979-.592-1.619-3.306-15.843-4.681-24.531l-1.676-9.908a102.4 102.4 0 0 1-.973-6.286c-.474-4.131-1.983-12.573-3.101-17.348l-1.274-5.706c-.556-2.813-2.429-4.129-4.378-3.078m15.783 90.588c.499.212 2.447 1.281 4.33 2.376s4.194 2.365 5.136 2.824c8.076 3.93 13.473 8.545 17.94 15.338 9.865 15.002 11.633 19.627 12.748 33.345.861 10.601-.094 16.692-4.445 28.325-4.955 13.251-18.223 23.034-37.859 27.915-9.093 2.26-28.865-.549-38.635-5.489-10.424-5.271-15.557-9.72-20.323-17.616l-2.783-4.504c-9.311-14.625-10.637-35.869-3.195-51.202 4.499-9.27 9.606-15.054 19.59-22.188 9.97-7.124 14.026-8.3 30.659-8.895 4.622-.165 9.245-.422 10.272-.57 2.299-.332 5.352-.173 6.564.342m-18.519 41.693c-13.587 5.413-15.506 21.171-3.373 27.706 9.196 4.953 19.506.768 21.863-8.875 2.833-11.59-8.273-22.901-18.49-18.831" fill="#0e0e0e"/><path d="M131.074 10.961c.374.408.83 1.518 1.019 2.477l1.274 5.706c1.118 4.775 2.627 13.217 3.101 17.348a102.4 102.4 0 0 0 .973 6.286c.346 1.806 1.1 6.265 1.676 9.908 1.375 8.688 4.088 22.912 4.681 24.531.861 2.352 1.637 2.843 6.296 3.979 5.428 1.323 16.065 6.407 20.602 9.845 5.777 4.378 12.966 11.848 17.283 17.959l4.137 5.855c2.527 3.576 4.203 6.548 5.95 10.555 4.243 9.73 6.925 19.719 7.323 27.276a200.866 193.755 0 0 0 .533 7.056c.439 4.417-.189 10.728-1.785 17.935-1.935 8.736-1.838 8.003-1.254 9.479.524 1.322 12.516 12.73 22.139 21.06 1.883 1.63 4.544 4.02 5.914 5.31s3.986 3.465 5.814 4.831l7.626 5.753c2.366 1.798 5.353 3.944 6.637 4.769 4.115 2.645 5.294 4.031 4.628 5.441-.593 1.256-2.431 1.718-4.218 1.061-.482-.176-2.369-.713-4.195-1.192-3.308-.868-11.537-4.219-17.914-7.296-3.299-1.591-8.559-3.773-13.16-5.458-1.283-.47-7.426-3.321-13.65-6.337-14.411-6.981-13.322-6.825-17.916-2.579-1.517 1.402-3.817 3.087-5.786 4.24l-6.029 3.568c-7.74 4.64-17.557 8.557-26.947 10.749-8.021 1.873-25.341.554-38.303-2.916-15.747-4.215-19.932-6.108-31.975-14.461-3.85-2.67-5.474-2.765-9.293-.543-1.093.636-2.794 1.468-3.782 1.85-1.678.65-8.175 4.024-10.704 5.559-.619.376-2.657 1.418-4.53 2.315s-3.971 1.977-4.664 2.399-3.208 1.71-5.586 2.862-5.797 2.9-7.594 3.884c-6.695 3.667-10.903 6.056-12.328 7.002-1.916 1.272-11.534 5.852-13.193 6.283-2.797.727-4.594-.863-3.591-3.178s11.771-12.211 20.552-18.882c1.712-1.301 4.233-3.398 5.603-4.661 2.706-2.494 8.519-7.415 11.551-9.778 1.047-.815 3.778-3.04 6.07-4.945l5.102-4.152c6.478-4.778 8.543-8.224 6.852-11.443-5.275-10.042-8.366-32.084-5.972-42.586 3.3-14.469 8.473-25.605 16.917-36.417 2.778-3.558 10.657-11.235 13.266-12.927 1.062-.688 2.561-1.753 3.331-2.364 2.233-1.773 7.327-4.889 11.528-7.051 2.133-1.097 4.018-2.105 4.19-2.238.494-.384 8.48-3.436 11.03-4.215 3.092-.944 4.403-2.184 5.105-4.829 1.249-4.703 4.574-23.069 5.159-28.494l1.129-10.509c.274-2.56.849-6.275 1.279-8.257s1.251-6.268 1.827-9.524 1.284-6.403 1.573-6.992c.984-2 3.296-2.448 4.701-.909m5.86 89.645c-1.027.149-5.649.405-10.272.57-16.634.594-20.69 1.771-30.659 8.895-9.985 7.134-15.092 12.918-19.59 22.188-7.442 15.333-6.116 36.577 3.195 51.202l2.783 4.504c4.766 7.896 9.899 12.345 20.323 17.616 9.77 4.941 29.542 7.749 38.635 5.489 19.636-4.881 32.904-14.664 37.859-27.915 4.351-11.633 5.306-17.724 4.445-28.325-1.114-13.718-2.882-18.343-12.748-33.345-4.467-6.793-9.865-11.408-17.94-15.338-.942-.459-3.253-1.729-5.136-2.824-5.146-2.992-6.557-3.344-10.894-2.717m-2.593 42.232c8.421 3.802 11.991 14.165 7.701 22.36-5.916 11.305-23.93 8.788-27.998-3.911-3.491-10.898 9.953-23.118 20.297-18.449" fill="transparent"/></svg>