<svg xmlns="http://www.w3.org/2000/svg" width="256" height="256" fill-rule="evenodd"  xmlns:v="https://vecta.io/nano"><path d="M84.882 49.542c-1.311.088-3.242.327-4.29.53l-6.318 1.178-7.509 1.703-4.887 1.279c-3.555.761-11.042 3.583-14.78 5.571a63.981 61.175 0 0 1-3.052 1.485c-2.995 1.354-6.046 3.189-9.734 5.853l-4.971 3.482c-.778.501-2.978 2.297-4.888 3.989l-5.491 4.82c-4.89 4.223-11.194 12.082-13.24 16.504-.634 1.372-4.024 10.984-4.98 14.118-1.996 6.552.289 10.242 3.802 6.142 1.019-1.188 5.306-4.329 6.74-4.937 3.892-1.65 16.781-3.455 21.51-3.013 1.005.094 2.451.01 4.111-.239 4.182-.628 16.534-.401 22.112.405l9.177 1.192c16.994 1.999 18.238 2.65 14.818 7.764-7.983 11.937-13.623 19.79-15.865 22.09-1.1 1.128-2.172 2.302-2.382 2.609-.67.978-6.454 5.641-7.976 6.431-1.689.877-4.074.983-7.549.338-3.052-.566-4.187.072-3.997 2.246.126 1.442 3.456 8.305 5.242 10.806l3.751 5.282c4.512 6.37 8.477 11.211 12.399 15.137 1.252 1.254 4.007 4.228 6.122 6.61s4.139 4.587 4.497 4.901 1.307 1.39 2.109 2.393c3.662 4.581 11.708 12.422 12.747 12.422 1.611 0 1.872-1.719.605-3.982l-1.084-1.962c-.246-.455-.601-1.967-.8-3.419-.413-2.991-1.151-7.635-1.793-11.264a87.03 87.03 0 0 1-.697-4.901l-.628-5.452c-1.143-9.328.574-20.214 4.471-28.348 2.365-4.936 6.272-12.178 8.598-15.936l3.051-4.992c.459-.776 1.8-2.829 2.98-4.561l4.649-6.857c1.376-2.038 2.969-4.257 3.539-4.93s1.919-2.42 2.997-3.88l3.902-5.215c3.152-4.157 3.371-4.966 1.746-6.444-1.195-1.086-2.321-1.351-6.821-1.602l-6.436-.449-21.335-1.708-6.675-.55-4.171-.369a102.54 102.54 0 0 1-4.529-.475c-1.442-.185-5.665-.431-9.383-.546-8.22-.254-8.631-.292-13.86-1.28-8.13-1.536-8.121-1.465-1.294-10.036 3.15-3.954 10.666-10.892 14.599-13.476 1.008-.662 2.423-1.694 3.144-2.294 5.791-4.815 9.302-6.811 17.239-9.804 6.313-2.38 6.657-2.558 6.554-3.403-.142-1.162-.888-1.285-5.795-.957m88.917.574l-1.004.331c-.029.003-.171.217-.318.479-.498.889.587 1.612 4.421 2.945 11.667 4.056 25.026 14.822 34.219 27.578 3.785 5.252 3.666 6.738-.577 7.179-.803.083-2.481.293-3.729.467s-4.305.431-6.794.573a174.95 174.95 0 0 0-9.173.82l-7.032.781c-1.311.119-4.254.477-6.541.795-3.102.431-5.399.597-9.058.653-2.697.041-5.478.19-6.182.329s-2.956.408-5.006.596c-4.2.386-6.994.793-10.854 1.579-1.456.296-3.399.606-4.317.69-4.226.385-5.156 1.731-3.106 4.498 2.504 3.381 4.69 6.595 5.827 8.568 1.142 1.983 4.242 6.477 7.894 11.448 2.007 2.73 5.619 8.186 8.451 12.764 1.202 1.944 2.69 4.217 3.305 5.053 1.129 1.532 3.459 6.011 5.185 9.964 3.183 7.29 4.178 20.872 2.275 31.025-.318 1.692-.706 4.051-.863 5.242-.47 3.567-3.074 14.512-4.547 19.113-1.325 4.139.521 5.908 3.744 3.589 2.71-1.949 12.65-12.057 16.016-16.287 1.615-2.027 4.286-5.079 9.808-11.201 1.186-1.316 2.751-3.214 3.476-4.217l2.752-3.761c4.373-5.905 11.896-19.164 12.08-21.29.121-1.408-.54-2.261-2.008-2.588-5.937-1.324-7.936-2.138-11.183-4.55-5.9-4.383-11.349-12.447-17.01-25.177-2.646-5.95-2.251-7.23 2.55-8.257 8.023-1.717 37.273-1.727 47.557-.017l6.845 1.142c3.526.591 7.486 1.637 10.779 2.85 4.273 1.573 4.604.624 1.971-5.65-.719-1.713-2.472-5.222-3.895-7.796a245.43 245.43 0 0 1-4.329-8.214c-2.192-4.446-3.925-7.076-7.133-10.826l-3.753-4.445c-2.357-2.862-16.459-14.193-19.483-15.653a12.569 12.018 0 0 1-1.514-.912c-3.56-2.549-18.935-8.385-23.3-8.844-.787-.083-1.829-.249-2.315-.369-4.089-1.013-12.388-1.599-14.133-.997" fill="#0b0b0b"/><path d="M90.008 49.605c.847.407.925 1.387.149 1.874-.327.204-3.042 1.295-6.034 2.422-7.937 2.993-11.448 4.989-17.239 9.804-.721.6-2.136 1.632-3.144 2.294-3.933 2.585-11.449 9.523-14.599 13.476-6.828 8.571-6.837 8.499 1.294 10.036 5.229.989 5.64 1.027 13.86 1.28 3.718.115 7.94.361 9.383.546s3.48.399 4.529.475a171.948 164.406 0 0 1 4.171.369c1.246.126 4.25.374 6.675.55l21.335 1.708c1.574.137 4.47.339 6.436.449 4.501.251 5.627.516 6.821 1.602 1.625 1.478 1.406 2.286-1.746 6.444l-3.902 5.215c-1.078 1.46-2.427 3.206-2.997 3.88s-2.163 2.893-3.539 4.93l-4.649 6.857c-1.18 1.732-2.521 3.785-2.98 4.561l-3.051 4.992c-2.326 3.758-6.233 11-8.598 15.936-3.897 8.134-5.614 19.019-4.471 28.348l.628 5.452a87.03 87.03 0 0 0 .697 4.901c.642 3.629 1.38 8.273 1.793 11.264.199 1.452.554 2.964.8 3.419l1.084 1.962c1.268 2.263 1.007 3.982-.605 3.982-1.039 0-9.085-7.841-12.747-12.422-.801-1.003-1.75-2.08-2.109-2.393s-2.382-2.519-4.497-4.901-4.87-5.356-6.122-6.61c-3.922-3.926-7.887-8.767-12.399-15.137l-3.751-5.282c-1.787-2.501-5.116-9.365-5.242-10.806-.189-2.174.946-2.812 3.997-2.246 3.476.645 5.86.538 7.549-.338 1.522-.789 7.306-5.452 7.976-6.431.21-.307 1.282-1.481 2.382-2.609 2.242-2.3 7.881-10.152 15.865-22.09 3.42-5.113 2.175-5.765-14.818-7.764l-9.177-1.192c-5.578-.806-17.93-1.033-22.112-.405-1.66.249-3.106.333-4.111.239-4.73-.443-17.619 1.362-21.51 3.013-1.434.608-5.721 3.749-6.74 4.937-3.513 4.1-5.798.411-3.802-6.142.956-3.134 4.345-12.747 4.98-14.118 2.046-4.422 8.35-12.282 13.24-16.504l5.491-4.82c1.91-1.693 4.11-3.488 4.888-3.989s3.015-2.068 4.971-3.482c3.688-2.664 6.739-4.499 9.734-5.853a63.981 61.175 0 0 0 3.052-1.485c3.738-1.989 11.225-4.81 14.78-5.571.983-.21 3.182-.786 4.887-1.279s5.083-1.26 7.509-1.703l6.318-1.178c1.733-.336 4.971-.638 7.747-.721.59-.018 1.341.097 1.669.254m92.918.728c2.267.308 4.52.659 5.007.78s1.528.286 2.315.369c4.364.459 19.739 6.294 23.3 8.844a12.569 12.018 0 0 0 1.514.912c3.024 1.46 17.126 12.791 19.483 15.653l3.753 4.445c3.208 3.75 4.941 6.381 7.133 10.826.958 1.943 2.906 5.64 4.329 8.214s3.176 6.083 3.895 7.796c2.633 6.274 2.302 7.223-1.971 5.65a62.8 62.8 0 0 0-10.779-2.85l-6.845-1.142c-10.283-1.71-39.533-1.7-47.557.017-4.801 1.027-5.196 2.307-2.55 8.257 5.661 12.73 11.11 20.795 17.01 25.177 3.247 2.412 5.246 3.226 11.183 4.55 1.467.327 2.128 1.18 2.008 2.588-.184 2.126-7.706 15.385-12.08 21.29l-2.752 3.761c-.725 1.003-2.29 2.9-3.476 4.217l-9.808 11.201c-3.366 4.23-13.307 14.338-16.016 16.287-3.224 2.319-5.069.55-3.744-3.589 1.473-4.601 4.077-15.546 4.547-19.113.156-1.191.545-3.55.863-5.242 1.904-10.152.909-23.735-2.275-31.025-1.726-3.953-4.057-8.432-5.185-9.964-.615-.836-2.103-3.109-3.305-5.053-2.832-4.578-6.444-10.033-8.451-12.764-3.652-4.971-6.752-9.466-7.894-11.448-1.137-1.972-3.323-5.187-5.827-8.568-2.05-2.768-1.121-4.113 3.106-4.498.918-.084 2.86-.394 4.317-.69 3.859-.786 6.653-1.192 10.854-1.579 2.05-.188 4.303-.456 5.006-.596s3.485-.287 6.182-.329c3.659-.056 5.956-.222 9.058-.653 2.286-.317 5.23-.676 6.541-.795s4.475-.47 7.032-.781 6.684-.679 9.173-.82 5.546-.399 6.794-.573l3.729-.467c2.679-.279 3.828-1.427 3.16-3.157-.625-1.621-4.815-7.248-8.754-11.758-7.104-8.133-19.413-16.842-28.047-19.843-3.834-1.333-4.919-2.056-4.421-2.945.146-.261.289-.476.318-.479s.48-.151 1.004-.331c1.414-.487 4.481-.414 9.127.217" fill="transparent"/></svg>